<svg width="16" height="17" viewBox="0 0 16 17" fill="none" xmlns="http://www.w3.org/2000/svg">
<path d="M3.08142 10.6618L8.84926 14.7551C9.34807 15.0913 9.8517 15.1913 10.3601 15.0551C10.8141 14.9334 11.1678 14.6918 11.4213 14.3302L14.3484 10.1098C14.6235 9.68363 14.7221 9.21666 14.6445 8.70884C14.5766 8.23755 14.3205 7.82649 13.8761 7.47566L8.10829 3.38238C7.46973 2.88779 6.74709 2.66048 5.94036 2.70043L1.91928 2.83808C1.52673 2.82579 1.20373 3.00044 0.950295 3.36203L0.597374 3.89713C0.378832 4.17105 0.330746 4.53636 0.453115 4.99305L1.72095 8.85304C2.02222 9.61421 2.47571 10.2171 3.08142 10.6618ZM2.0024 4.01992L6.09265 3.92247C6.51662 3.90676 6.98219 4.04633 7.48937 4.34117L13.2572 8.43445C13.4416 8.54166 13.5311 8.6939 13.5256 8.89117C13.5549 9.00078 13.5148 9.17795 13.4052 9.42268L10.4781 13.6431C10.3804 13.7868 10.2395 13.8784 10.0555 13.9179C9.87141 13.9574 9.71687 13.9254 9.59181 13.8219L3.82397 9.72859C3.36148 9.38262 3.06905 8.98129 2.94668 8.52461L1.595 4.56961L2.0024 4.01992ZM4.06894 5.52199C4.11299 5.6864 4.09522 5.838 4.01564 5.9768C3.93605 6.1156 3.81454 6.20689 3.65111 6.25068C3.48768 6.29448 3.33681 6.27617 3.19848 6.19575C3.06016 6.11534 2.96897 5.99293 2.92492 5.82853C2.88087 5.66412 2.89864 5.51252 2.97822 5.37372C3.05781 5.23492 3.17931 5.14362 3.34274 5.09983C3.50617 5.05604 3.65705 5.07435 3.79537 5.15476C3.9337 5.23517 4.02488 5.35758 4.06894 5.52199ZM5.46254 9.52449L11.2565 9.79286L11.4471 9.74177C11.7014 9.67365 11.8553 9.48555 11.909 9.17748C11.9243 9.01674 11.8761 8.87304 11.7643 8.74636C11.6525 8.61968 11.5166 8.54841 11.3567 8.53253L5.56274 8.26416C5.39789 8.23002 5.24808 8.27016 5.11331 8.38459C4.97854 8.49901 4.90349 8.6366 4.88817 8.79733C4.8918 9.24668 5.08325 9.48907 5.46254 9.52449ZM10.5255 10.9872C10.5892 11.2247 10.5625 11.4521 10.4456 11.6695C10.3287 11.8868 10.1431 12.0295 9.88885 12.0976C9.63462 12.1658 9.40254 12.1349 9.19261 12.0052C8.98268 11.8754 8.8459 11.6918 8.78227 11.4544C8.71864 11.2169 8.74983 10.9883 8.87584 10.7685C9.00185 10.5487 9.18288 10.4072 9.41895 10.344C9.65502 10.2807 9.88256 10.3127 10.1016 10.4401C10.3206 10.5674 10.4619 10.7498 10.5255 10.9872ZM7.53411 6.79614C7.59774 7.03362 7.56655 7.26224 7.44054 7.48201C7.31453 7.70177 7.13349 7.84328 6.89743 7.90653C6.66136 7.96979 6.43382 7.93776 6.21481 7.81044C5.9958 7.68312 5.85448 7.50072 5.79085 7.26325C5.72722 7.02577 5.75387 6.79836 5.8708 6.58103C5.98773 6.3637 6.1733 6.22097 6.42753 6.15285C6.68175 6.08474 6.91383 6.11555 7.12376 6.2453C7.33369 6.37505 7.47047 6.55866 7.53411 6.79614Z" fill="#980505"/>
</svg>
